<svg xmlns="http://www.w3.org/2000/svg" xmlns:xlink="http://www.w3.org/1999/xlink" xmlns:ev="http://www.w3.org/2001/xml-events" version="1.1" baseProfile="full" height="100%" width="100%" viewBox="0 0 18 171" preserveAspectRatio="none" id="8130078572" class="element svg-element">
<path fill="rgb( 233, 87, 110 )" d="M18,154.079 C18,154.079 16.794,156.206 16.794,156.206 C16.794,156.206 10.125,149.02 10.125,149.02 C10.125,149.02 10.125,158.909 10.125,158.909 C10.125,158.909 18,167.394 18,167.394 C18,167.394 16.794,169.521 16.794,169.521 C16.794,169.521 10.125,162.335 10.125,162.335 C10.125,162.335 10.125,171 10.125,171 C10.125,171 7.875,171 7.875,171 C7.875,171 7.875,162.6 7.875,162.6 C7.875,162.6 1.16500000000002,169.875 1.16500000000002,169.875 C1.16500000000002,169.875 0,167.807 0,167.807 C0,167.807 7.875,159.27 7.875,159.27 C7.875,159.27 7.875,149.285 7.875,149.285 C7.875,149.285 1.16500000000002,156.56 1.16500000000002,156.56 C1.16500000000002,156.56 0,154.493 0,154.493 C0,154.493 7.875,145.955 7.875,145.955 C7.875,145.955 7.875,135.971 7.875,135.971 C7.875,135.971 1.16500000000002,143.246 1.16500000000002,143.246 C1.16500000000002,143.246 0,141.178 0,141.178 C0,141.178 7.875,132.64 7.875,132.64 C7.875,132.64 7.875,13.853 7.875,13.853 C5.517,14.36 0,15.5 0,15.5 C0,15.5 9.21600000000001,0 9.21600000000001,0 C9.21600000000001,0 18,15.75 18,15.75 C18,15.75 12.597,14.519 10.125,13.927 C10.125,13.927 10.125,132.279 10.125,132.279 C10.125,132.279 18,140.764 18,140.764 C18,140.764 16.794,142.891 16.794,142.891 C16.794,142.891 10.125,135.705 10.125,135.705 C10.125,135.705 10.125,145.594 10.125,145.594 C10.125,145.594 18,154.079 18,154.079 Z " style="fill: rgb(233, 87, 110);"></path>
</svg>