<svg xmlns="http://www.w3.org/2000/svg" xmlns:xlink="http://www.w3.org/1999/xlink" version="1.1" id="6849727727" x="0px" y="0px" width="100%" height="100%" viewBox="0 0 64 64" enable-background="new 0 0 64 64" xml:space="preserve" preserveAspectRatio="none" class="element svg-element">
<path fill="#E0995E" d="M32,0c17.673,0,32,14.327,32,32S49.673,64,32,64S0,49.673,0,32S14.327,0,32,0z" style="fill: rgba(224, 153, 94, 0);"></path>
<g opacity="0.2">
	<g>
		<path fill="#231F20" d="M44,48c0,2.209-1.791,4-4,4H24c-2.209,0-4-1.791-4-4V16c0-2.209,1.791-4,4-4h16c2.209,0,4,1.791,4,4V48z" style="fill: rgb(255, 250, 251);"></path>
	</g>
</g>
<g>
	<g>
		<path fill="#4F5D73" d="M24,48.5c-1.379,0-2.5-1.121-2.5-2.5V14c0-1.379,1.121-2.5,2.5-2.5h16c1.379,0,2.5,1.121,2.5,2.5v32    c0,1.379-1.121,2.5-2.5,2.5H24z" style="fill: rgb(255, 255, 255);"></path>
	</g>
	<g>
		<path fill="#FFFFFF" d="M40,13c0.551,0,1,0.449,1,1v32c0,0.551-0.449,1-1,1H24c-0.551,0-1-0.449-1-1V14c0-0.551,0.449-1,1-1H40     M40,10H24c-2.209,0-4,1.791-4,4v32c0,2.209,1.791,4,4,4h16c2.209,0,4-1.791,4-4V14C44,11.791,42.209,10,40,10L40,10z" style="fill: rgb(48, 162, 219);"></path>
	</g>
</g>
<g opacity="0.2">
	<polygon fill="#FFFFFF" points="26.25,11.5 42.001,49.62 42.001,11.5  " style="fill: rgb(48, 162, 219);"></polygon>
</g>
<g>
	<polygon fill="#FFFFFF" points="40,50 24,50 20,42 44,42  " style="fill: rgb(48, 162, 219);"></polygon>
</g>
<g>
	<circle fill="#E0E0D1" cx="32" cy="46" r="2" style="fill: rgb(224, 224, 209);"></circle>
</g>
<g id="Layer_2">
</g>
</svg>