<svg xmlns="http://www.w3.org/2000/svg" xmlns:xlink="http://www.w3.org/1999/xlink" version="1.1" id="3825521074" x="0px" y="0px" width="100%" height="100%" viewBox="0 0 64 64" enable-background="new 0 0 64 64" xml:space="preserve" preserveAspectRatio="none" class="element svg-element">
<path fill="#77B3D4" d="M32,0c17.673,0,32,14.327,32,32S49.673,64,32,64S0,49.673,0,32S14.327,0,32,0z" style="fill: rgb(8, 161, 239);"></path>
<path opacity="0.2" fill="#231F20" d="M48,50c0,2.209-1.791,4-4,4H20c-2.209,0-4-1.791-4-4V18c0-2.209,1.791-4,4-4h24  c2.209,0,4,1.791,4,4V50z" style="fill: rgb(8, 161, 239);"></path>
<path fill="#4F5D73" d="M48,48c0,2.209-1.791,4-4,4H20c-2.209,0-4-1.791-4-4V16c0-2.209,1.791-4,4-4h24c2.209,0,4,1.791,4,4V48z" style="fill: rgb(255, 255, 255);"></path>
<path fill="#C75C5C" d="M35,12v7.846c0,0.264,0.163,0.503,0.411,0.604c0.083,0.033,0.169,0.05,0.255,0.05  c0.173,0,0.344-0.067,0.471-0.192L39,17.501l2.862,2.807c0.127,0.125,0.298,0.192,0.471,0.192c0.086,0,0.173-0.016,0.255-0.05  C42.837,20.349,43,20.11,43,19.846V12H35z" style="fill: rgb(8, 161, 239);"></path>
<path fill="#E0E0D1" d="M20,12h3v40h-3V12z" style="fill: rgb(8, 161, 239);"></path>
</svg>